<?xml version="1.0" encoding="utf-8"?>
<!-- Generator: Adobe Illustrator 21.1.0, SVG Export Plug-In . SVG Version: 6.00 Build 0)  -->
<svg version="1.1" id="Layer_1" xmlns="http://www.w3.org/2000/svg" xmlns:xlink="http://www.w3.org/1999/xlink" x="0px" y="0px"
	 viewBox="0 0 727 295.5" style="enable-background:new 0 0 727 295.5;" xml:space="preserve">
<style type="text/css">
	.st0{fill:#007377;}
	.st1{fill:#1D1D1B;}
</style>
<g>
	<path class="st0" d="M151.7,216.1c-1.3,0-2.1-0.2-2.4-0.6c-0.3-0.4-0.5-1.3-0.5-2.7v-11.2c0-1.4,0.2-2.3,0.5-2.7
		c0.3-0.4,1.1-0.6,2.4-0.6h31.9c1.3,0,2,0.2,2.4,0.6c0.3,0.4,0.5,1.3,0.5,2.7V289c0,1.4-0.2,2.3-0.5,2.7c-0.3,0.4-1.1,0.6-2.4,0.6
		h-15.9c-1.3,0-2.1-0.2-2.4-0.6c-0.3-0.4-0.5-1.3-0.5-2.7v-73H151.7z M175.3,155.1c3.8,0,7,1.5,9.7,4.6c2.7,3,4,6.7,4,10.8
		c0,4.3-1.4,8-4,10.9c-2.7,3-6,4.5-9.9,4.5c-3.9,0-7.2-1.5-9.9-4.5c-2.7-3-4-6.7-4-11.1c0-4.2,1.4-7.8,4.1-10.7
		C168.1,156.6,171.4,155.1,175.3,155.1z"/>
	<path class="st0" d="M224.8,194.6c0.7-0.3,1.3-0.4,1.7-0.4c1,0,2.1,1.1,3.2,3.4c1.1,2.3,2.1,5.5,3,9.6c4.4-4.4,8.6-7.5,12.6-9.3
		c4-1.8,8.5-2.7,13.5-2.7c7.6,0,13.2,2.4,16.7,7.2c3.5,4.8,5.3,12.4,5.3,22.8V289c0,1.4-0.2,2.3-0.5,2.7c-0.3,0.4-1.1,0.6-2.4,0.6
		h-15.9c-1.3,0-2.1-0.2-2.4-0.6c-0.3-0.4-0.5-1.3-0.5-2.7v-58.7c0-5.7-0.8-9.8-2.4-12.3c-1.6-2.5-4.1-3.7-7.6-3.7
		c-2.6,0-5,0.6-7.2,1.7c-2.3,1.1-4.9,3.2-7.9,6.1V289c0,1.4-0.2,2.3-0.5,2.7c-0.3,0.4-1.1,0.6-2.4,0.6h-15.9c-1.3,0-2.1-0.2-2.4-0.6
		c-0.3-0.4-0.5-1.3-0.5-2.7v-63.8c0-8.1-1.2-15-3.6-20.7c-0.3-0.8-0.5-1.4-0.5-1.9c0-0.8,0.5-1.3,1.4-1.7L224.8,194.6z"/>
	<path class="st0" d="M309,190.4c0-6.5,0.4-11.6,1.3-15.3c0.9-3.7,2.3-7.1,4.4-10c5.1-7,12.4-10.4,21.7-10.4c2.6,0,5.2,0.2,7.8,0.6
		c2.5,0.4,4.8,0.9,6.7,1.5c2,0.6,3.5,1.4,4.7,2.2c1.2,0.8,1.8,1.7,1.8,2.6c0,0.3,0,0.4,0,0.6l-0.3,1l-3.1,13.5
		c-0.5,1.1-1,1.7-1.5,1.7c-0.5,0-1-0.2-1.7-0.6c-3.6-1.8-7-2.7-10.3-2.7c-4,0-6.8,1.3-8.3,4c-0.6,1-0.9,2.2-1.1,3.6
		c-0.2,1.4-0.3,4-0.3,7.8v8h19.6c2,0,2.9,0.6,2.9,1.9c0,0.5-0.1,1.1-0.3,1.9l-2.4,11c-0.5,1.9-1.6,2.8-3.3,2.8h-16.5v73
		c0,1.4-0.2,2.3-0.5,2.7c-0.3,0.4-1.1,0.6-2.4,0.6h-15.9c-1.3,0-2.1-0.2-2.4-0.6c-0.3-0.4-0.5-1.3-0.5-2.7v-73h-13.1
		c-1.5,0-2.4-0.2-2.6-0.6c-0.2-0.4-0.3-1.7-0.3-4V201c0-1.8,1-2.7,2.9-2.7H309V190.4z"/>
	<path class="st0" d="M395.4,195.2c5.6,0,10.7,1.2,15.2,3.5c4.5,2.3,8.4,5.7,11.5,10c3.2,4.3,5.6,9.5,7.3,15.7
		c1.7,6.1,2.6,13.1,2.6,20.8c0,7.7-0.9,14.7-2.6,20.9c-1.7,6.2-4.2,11.5-7.4,15.9c-3.2,4.4-7.1,7.7-11.8,10.1
		c-4.7,2.3-9.8,3.5-15.6,3.5c-11.8,0-21-4.4-27.6-13.2c-6.6-8.8-9.9-21.1-9.9-37c0-15.3,3.3-27.4,10-36.3c3.7-4.8,7.8-8.3,12.2-10.5
		C383.9,196.3,389.2,195.2,395.4,195.2z M394.4,214.3c-4.9,0-8.5,2.4-10.7,7.2c-2.2,4.8-3.3,12.7-3.3,23.8c0,11,1.1,18.9,3.3,23.8
		c2.2,4.8,5.8,7.2,10.8,7.2c5.2,0,8.8-2.4,11-7.2c2.2-4.8,3.3-12.7,3.3-23.6c0-11.3-1.1-19.3-3.4-24
		C403.3,216.7,399.6,214.3,394.4,214.3z"/>
	<path class="st0" d="M447.6,270c0.3-1.3,0.9-1.9,1.7-1.9c0.3,0,0.9,0.2,1.6,0.6c9.1,5.4,16.9,8.2,23.4,8.2c3,0,5.4-0.9,7.2-2.8
		c1.8-1.8,2.8-4.2,2.8-7.1c0-1.3-0.2-2.4-0.5-3.4c-0.3-1-1-2-1.9-2.8c-0.9-0.9-2.3-1.8-4-2.7c-1.8-0.9-4-1.9-6.8-3
		c-2.8-1.1-5.1-2.2-7-3.1c-1.9-1-3.5-1.8-4.9-2.6c-1.4-0.8-2.5-1.5-3.4-2.3c-0.9-0.8-1.8-1.5-2.6-2.3c-4.6-4.8-6.9-11-6.9-18.6
		c0-4.6,0.7-8.7,2.2-12.5c1.5-3.8,3.6-7.1,6.4-9.8c2.8-2.7,6-4.8,9.7-6.4c3.7-1.5,7.8-2.3,12.3-2.3c2.8,0,5.7,0.3,8.7,0.9
		c3,0.6,5.9,1.3,8.5,2.2c2.6,0.9,4.8,1.8,6.5,2.8c1.7,1,2.6,2,2.6,2.9c0,0.6-0.2,1.3-0.5,2.1l-4.3,10.8c-0.6,1.1-1.1,1.7-1.7,1.7
		c-0.2,0-0.7-0.1-1.4-0.4c-6.7-3.3-12.5-4.9-17.4-4.9c-7.3,0-11,3.2-11,9.7c0,2.5,0.7,4.5,2.2,5.9c1.4,1.4,4.5,3.1,9.2,5.1
		c3.2,1.4,5.9,2.6,8,3.6c2.1,1,3.9,1.9,5.4,2.8c1.5,0.8,2.7,1.6,3.7,2.5c1,0.8,1.9,1.7,2.8,2.6c4.7,5.2,7.1,11.7,7.1,19.4
		c0,4.1-0.7,8-2.1,11.9c-1.4,3.9-3.3,7.3-5.9,10.2c-5.2,5.8-12.2,8.7-21.2,8.7c-4.8,0-9.8-0.7-14.9-2.1c-5.1-1.4-9.9-3.4-14.4-5.9
		c-1.6-0.9-2.6-1.5-3.1-2c-0.5-0.4-0.7-1-0.7-1.6c0-0.4,0-0.7,0.1-0.9c0.1-0.3,0.2-0.7,0.4-1.3L447.6,270z"/>
	<path class="st0" d="M514.1,216.1c-1.3,0-2.1-0.2-2.4-0.6c-0.3-0.4-0.5-1.3-0.5-2.7v-11.2c0-1.4,0.2-2.3,0.5-2.7
		c0.3-0.4,1.1-0.6,2.4-0.6H546c1.3,0,2,0.2,2.4,0.6c0.3,0.4,0.5,1.3,0.5,2.7V289c0,1.4-0.2,2.3-0.5,2.7c-0.3,0.4-1.1,0.6-2.4,0.6
		h-15.9c-1.3,0-2.1-0.2-2.4-0.6c-0.3-0.4-0.5-1.3-0.5-2.7v-73H514.1z M537.7,155.1c3.8,0,7,1.5,9.7,4.6c2.7,3,4,6.7,4,10.8
		c0,4.3-1.4,8-4,10.9c-2.7,3-6,4.5-9.9,4.5c-3.9,0-7.2-1.5-9.9-4.5c-2.7-3-4-6.7-4-11.1c0-4.2,1.4-7.8,4.1-10.7
		C530.4,156.6,533.8,155.1,537.7,155.1z"/>
	<path class="st0" d="M596.4,289c0,1.4-0.2,2.3-0.5,2.7c-0.3,0.4-1.2,0.6-2.4,0.6h-15.8c-1.3,0-2.1-0.2-2.4-0.6
		c-0.3-0.4-0.5-1.3-0.5-2.7v-63.8c0-2.4-0.1-4.5-0.2-6.4c-0.1-1.8-0.3-3.5-0.5-5c-0.2-1.5-0.5-3-0.9-4.4c-0.4-1.4-0.9-3-1.5-4.8
		c-0.3-0.8-0.5-1.5-0.5-2.1c0-0.9,0.6-1.6,1.9-2.3l14-5.1c0.5-0.1,0.8-0.2,1-0.3c0.2-0.1,0.5-0.1,0.7-0.1c0.9,0,1.9,1.2,2.9,3.7
		c1,2.5,1.9,5.9,2.7,10.1c4.8-4.9,9.1-8.3,12.9-10.4c3.8-2,8-3.1,12.7-3.1c8.8,0,15.1,4.5,18.8,13.4c4.9-5,9.4-8.5,13.3-10.5
		c3.9-2,8.3-3,13.1-3c7.9,0,13.4,3.2,16.5,9.5c1.3,2.7,2.1,5.5,2.5,8.5c0.4,3,0.6,7.5,0.6,13.3V289c0,1.4-0.2,2.3-0.5,2.7
		c-0.3,0.4-1.2,0.6-2.4,0.6H666c-1.3,0-2.1-0.2-2.4-0.6c-0.3-0.4-0.5-1.3-0.5-2.7v-60.1c0-5.3-0.6-9.1-1.7-11.3
		c-1.1-2.2-3.1-3.3-6-3.3c-2.3,0-4.5,0.6-6.8,1.9c-2.2,1.3-4.9,3.5-7.9,6.6V289c0,1.4-0.2,2.3-0.5,2.7c-0.3,0.4-1.2,0.6-2.4,0.6
		h-15.8c-1.3,0-2.1-0.2-2.4-0.6c-0.3-0.4-0.5-1.3-0.5-2.7v-58.2c0-6.3-0.5-10.6-1.6-12.8c-1.1-2.2-3.2-3.3-6.2-3.3
		c-2.3,0-4.6,0.6-6.8,1.9c-2.3,1.3-4.9,3.3-7.9,6.3V289z"/>
</g>
<g>
	<path class="st0" d="M705.1,143.1c2.7,0,5.3,0.6,7.7,1.7c2.4,1.1,4.5,2.7,6.3,4.6c1.8,1.9,3.2,4.2,4.3,6.8c1.1,2.6,1.6,5.3,1.6,8.3
		c0,3-0.5,5.7-1.6,8.3c-1.1,2.6-2.5,4.8-4.3,6.8c-1.8,1.9-4,3.5-6.4,4.6c-2.4,1.1-5,1.7-7.8,1.7c-2.8,0-5.4-0.6-7.8-1.7
		c-2.5-1.1-4.6-2.7-6.4-4.6c-1.8-1.9-3.3-4.2-4.3-6.8c-1.1-2.6-1.6-5.3-1.6-8.3c0-3,0.5-5.8,1.6-8.4c1.1-2.6,2.5-4.9,4.3-6.8
		c1.8-1.9,4-3.5,6.5-4.6C699.6,143.6,702.3,143.1,705.1,143.1z M704.7,147c-2,0-4,0.5-5.8,1.4c-1.8,0.9-3.4,2.2-4.8,3.7
		c-1.4,1.6-2.4,3.4-3.2,5.5c-0.8,2.1-1.2,4.4-1.2,6.8s0.4,4.7,1.2,6.8c0.8,2.1,1.9,4,3.3,5.5c1.4,1.6,3,2.8,4.8,3.7
		c1.8,0.9,3.8,1.4,5.9,1.4c2.1,0,4-0.5,5.9-1.4c1.8-0.9,3.5-2.2,4.8-3.7c1.4-1.6,2.5-3.4,3.3-5.5c0.8-2.1,1.2-4.3,1.2-6.8
		c0-2.4-0.4-4.7-1.2-6.8c-0.8-2.1-1.9-4-3.3-5.5c-1.4-1.6-3-2.8-4.9-3.7C708.9,147.5,706.9,147,704.7,147z M714.1,174.3
		c0.2,0.2,0.2,0.4,0.2,0.7c0,0.4-0.3,0.6-0.9,0.8l-3.1,0.8c-0.2,0.1-0.4,0.1-0.5,0.1c-0.3,0-0.6-0.2-0.9-0.7l-5-9.4h-1.6v8.4
		c0,0.4-0.1,0.7-0.2,0.9c-0.2,0.1-0.5,0.2-0.9,0.2h-3.3c-0.4,0-0.7-0.1-0.9-0.2c-0.2-0.2-0.2-0.5-0.2-1v-21.7c0-0.4,0.1-0.7,0.2-0.9
		c0.2-0.1,0.5-0.2,0.9-0.2h6c3.1,0,5.4,0.6,6.8,1.7c1.4,1.1,2.1,2.9,2.1,5.4c0,1.6-0.3,2.9-0.9,4c-0.6,1-1.6,1.9-3,2.7L714.1,174.3z
		 M703,162.3c1.5,0,2.6-0.2,3.2-0.7c0.6-0.5,0.9-1.3,0.9-2.4c0-1.1-0.3-1.8-0.8-2.2c-0.5-0.4-1.5-0.6-2.9-0.6h-1.1v5.9H703z"/>
</g>
<g>
	<rect y="49.6" class="st1" width="49.6" height="99.2"/>
	<rect x="49.6" y="99.2" class="st0" width="49.6" height="99.2"/>
	<polygon class="st1" points="104.3,0 99.2,0 49.6,0 49.6,49.6 99.2,49.6 99.2,99.2 148.8,99.2 148.8,0 	"/>
</g>
</svg>
