<?xml version="1.0" encoding="utf-8"?>
<!-- Generator: Adobe Illustrator 24.1.2, SVG Export Plug-In . SVG Version: 6.00 Build 0)  -->
<svg version="1.1" id="Layer_1" xmlns="http://www.w3.org/2000/svg" xmlns:xlink="http://www.w3.org/1999/xlink" x="0px" y="0px"
	 viewBox="0 0 1270.05 787.21" style="enable-background:new 0 0 1270.05 787.21;" xml:space="preserve">
<style type="text/css">
	.st0{fill:#007377;}
	.st1{fill:#1D1D1B;}
</style>
<g>
	<path class="st0" d="M424.28,413.06c-1.26,0-2.07-0.19-2.41-0.57c-0.34-0.38-0.52-1.26-0.52-2.66v-11.21
		c0-1.39,0.17-2.28,0.52-2.66c0.34-0.38,1.15-0.57,2.41-0.57h31.88c1.25,0,2.05,0.19,2.39,0.57c0.34,0.38,0.51,1.27,0.51,2.66v87.4
		c0,1.4-0.17,2.28-0.51,2.66c-0.34,0.38-1.14,0.57-2.39,0.57h-15.89c-1.25,0-2.05-0.19-2.39-0.57c-0.34-0.38-0.51-1.26-0.51-2.66
		v-72.96H424.28z M447.87,352.07c3.79,0,7.03,1.52,9.73,4.56c2.7,3.04,4.05,6.65,4.05,10.83c0,4.31-1.35,7.95-4.05,10.92
		c-2.7,2.98-6,4.46-9.9,4.46c-3.9,0-7.21-1.49-9.9-4.46c-2.7-2.97-4.05-6.68-4.05-11.12c0-4.18,1.38-7.76,4.13-10.73
		C440.64,353.56,443.97,352.07,447.87,352.07z"/>
	<path class="st0" d="M497.36,391.59c0.68-0.25,1.25-0.38,1.71-0.38c1.02,0,2.08,1.13,3.16,3.39c1.08,2.26,2.08,5.46,2.99,9.6
		c4.42-4.39,8.63-7.49,12.64-9.31c4.01-1.82,8.52-2.73,13.52-2.73c7.63,0,13.21,2.41,16.75,7.22c3.53,4.82,5.3,12.41,5.3,22.8v63.84
		c0,1.4-0.17,2.28-0.51,2.66c-0.34,0.38-1.14,0.57-2.39,0.57h-15.89c-1.25,0-2.05-0.19-2.39-0.57c-0.34-0.38-0.51-1.27-0.51-2.67
		v-58.66c0-5.71-0.79-9.81-2.36-12.29c-1.57-2.48-4.1-3.71-7.6-3.71c-2.56,0-4.98,0.57-7.25,1.72c-2.27,1.14-4.92,3.17-7.94,6.09
		v66.85c0,1.4-0.17,2.29-0.51,2.67c-0.34,0.38-1.14,0.57-2.39,0.57H487.8c-1.25,0-2.05-0.19-2.39-0.57
		c-0.34-0.38-0.51-1.26-0.51-2.66v-63.84c0-8.1-1.21-15.01-3.62-20.71c-0.34-0.76-0.52-1.39-0.52-1.9c0-0.76,0.46-1.33,1.38-1.71
		L497.36,391.59z"/>
	<path class="st0" d="M581.5,387.41c0-6.46,0.42-11.56,1.28-15.29c0.85-3.74,2.31-7.06,4.36-9.98c5.13-6.96,12.38-10.45,21.74-10.45
		c2.64,0,5.22,0.19,7.75,0.57c2.52,0.38,4.76,0.89,6.72,1.52c1.95,0.63,3.53,1.36,4.74,2.18c1.21,0.83,1.81,1.68,1.81,2.57
		c0,0.25,0,0.45,0,0.57l-0.34,0.95l-3.1,13.49c-0.46,1.14-0.98,1.71-1.55,1.71c-0.46,0-1.03-0.19-1.72-0.57
		c-3.56-1.77-7-2.66-10.33-2.66c-4.02,0-6.78,1.33-8.27,3.99c-0.58,1.02-0.95,2.22-1.12,3.61c-0.17,1.4-0.26,3.99-0.26,7.79v7.98
		h19.63c1.95,0,2.93,0.64,2.93,1.9c0,0.51-0.12,1.14-0.35,1.9L623,410.21c-0.46,1.9-1.55,2.85-3.27,2.85H603.2v72.96
		c0,1.4-0.17,2.28-0.51,2.66c-0.34,0.38-1.14,0.57-2.39,0.57h-15.89c-1.25,0-2.05-0.19-2.39-0.57c-0.34-0.38-0.51-1.26-0.51-2.66
		v-72.96h-13.09c-1.49,0-2.35-0.19-2.58-0.57c-0.23-0.38-0.34-1.71-0.34-3.99v-10.45c0-1.77,0.97-2.66,2.93-2.66h13.09V387.41z"/>
	<path class="st0" d="M667.95,392.16c5.63,0,10.71,1.17,15.24,3.51c4.54,2.35,8.38,5.67,11.54,9.98c3.16,4.31,5.6,9.53,7.32,15.67
		c1.72,6.15,2.58,13.08,2.58,20.8c0,7.73-0.86,14.7-2.58,20.9c-1.72,6.21-4.19,11.5-7.4,15.86c-3.21,4.37-7.15,7.73-11.8,10.07
		c-4.65,2.34-9.85,3.52-15.59,3.52c-11.83,0-21.04-4.4-27.64-13.21c-6.6-8.8-9.9-21.12-9.9-36.96c0-15.33,3.33-27.42,9.99-36.29
		c3.67-4.81,7.75-8.33,12.23-10.54C656.42,393.27,661.75,392.16,667.95,392.16z M666.92,411.35c-4.94,0-8.5,2.41-10.68,7.22
		c-2.18,4.82-3.27,12.73-3.27,23.75c0,11.02,1.09,18.94,3.27,23.75c2.18,4.82,5.8,7.22,10.85,7.22c5.17,0,8.84-2.4,11.02-7.22
		c2.18-4.81,3.27-12.67,3.27-23.56c0-11.27-1.12-19.29-3.36-24.04C675.79,413.72,672.08,411.35,666.92,411.35z"/>
	<path class="st0" d="M720.13,467.02c0.35-1.26,0.92-1.9,1.72-1.9c0.34,0,0.86,0.19,1.55,0.57c9.07,5.45,16.88,8.17,23.42,8.17
		c2.98,0,5.39-0.92,7.23-2.75c1.84-1.83,2.76-4.21,2.76-7.13c0-1.27-0.17-2.41-0.52-3.42c-0.34-1.01-0.98-1.96-1.89-2.85
		c-0.92-0.88-2.27-1.77-4.05-2.66c-1.78-0.88-4.05-1.9-6.8-3.04c-2.76-1.14-5.08-2.18-6.97-3.13c-1.89-0.95-3.53-1.8-4.91-2.57
		c-1.38-0.76-2.53-1.52-3.45-2.28c-0.92-0.76-1.78-1.52-2.58-2.28c-4.59-4.81-6.89-11.02-6.89-18.62c0-4.56,0.74-8.74,2.24-12.54
		c1.49-3.8,3.62-7.06,6.37-9.79c2.76-2.72,6-4.84,9.73-6.36c3.73-1.52,7.84-2.28,12.31-2.28c2.75,0,5.65,0.29,8.7,0.85
		c3.04,0.57,5.88,1.3,8.53,2.19c2.64,0.89,4.82,1.84,6.54,2.85c1.72,1.02,2.58,1.97,2.58,2.85c0,0.63-0.17,1.33-0.52,2.09
		l-4.3,10.83c-0.58,1.14-1.15,1.71-1.72,1.71c-0.23,0-0.69-0.13-1.38-0.38c-6.66-3.29-12.46-4.94-17.39-4.94
		c-7.35,0-11.02,3.23-11.02,9.69c0,2.54,0.71,4.5,2.15,5.89c1.43,1.4,4.5,3.11,9.21,5.13c3.21,1.4,5.88,2.6,8.01,3.61
		c2.12,1.01,3.93,1.93,5.42,2.75c1.49,0.83,2.73,1.65,3.7,2.47c0.97,0.83,1.92,1.68,2.84,2.57c4.71,5.2,7.06,11.66,7.06,19.38
		c0,4.05-0.69,8.01-2.07,11.88c-1.38,3.87-3.33,7.25-5.86,10.17c-5.17,5.82-12.23,8.74-21.18,8.74c-4.82,0-9.79-0.7-14.9-2.09
		c-5.11-1.39-9.9-3.35-14.38-5.89c-1.61-0.88-2.64-1.55-3.1-2c-0.46-0.44-0.69-0.98-0.69-1.62c0-0.38,0.03-0.69,0.09-0.95
		c0.06-0.25,0.2-0.7,0.43-1.33L720.13,467.02z"/>
	<path class="st0" d="M786.6,413.06c-1.26,0-2.07-0.19-2.41-0.57c-0.34-0.38-0.52-1.26-0.52-2.66v-11.21c0-1.39,0.17-2.28,0.52-2.66
		c0.34-0.38,1.15-0.57,2.41-0.57h31.88c1.25,0,2.05,0.19,2.39,0.57c0.34,0.38,0.51,1.27,0.51,2.66v87.4c0,1.4-0.17,2.28-0.51,2.66
		c-0.34,0.38-1.14,0.57-2.39,0.57H802.6c-1.25,0-2.05-0.19-2.39-0.57c-0.34-0.38-0.51-1.26-0.51-2.66v-72.96H786.6z M810.2,352.07
		c3.79,0,7.03,1.52,9.73,4.56c2.7,3.04,4.05,6.65,4.05,10.83c0,4.31-1.35,7.95-4.05,10.92c-2.7,2.98-6,4.46-9.9,4.46
		c-3.9,0-7.21-1.49-9.9-4.46c-2.7-2.97-4.05-6.68-4.05-11.12c0-4.18,1.38-7.76,4.13-10.73C802.97,353.56,806.29,352.07,810.2,352.07
		z"/>
	<path class="st0" d="M868.92,486.03c0,1.39-0.18,2.27-0.52,2.65c-0.35,0.38-1.16,0.57-2.43,0.57h-15.79
		c-1.28,0-2.08-0.19-2.43-0.57c-0.35-0.38-0.52-1.26-0.52-2.66v-63.84c0-2.4-0.06-4.53-0.17-6.36c-0.12-1.83-0.29-3.52-0.52-5.04
		c-0.23-1.52-0.54-2.97-0.95-4.37c-0.4-1.39-0.89-2.97-1.46-4.75c-0.34-0.76-0.52-1.46-0.52-2.09c0-0.88,0.63-1.64,1.89-2.28
		l14.05-5.13c0.46-0.13,0.81-0.22,1.04-0.29c0.23-0.06,0.46-0.09,0.7-0.09c0.93,0,1.88,1.25,2.86,3.74
		c0.98,2.49,1.88,5.85,2.69,10.07c4.82-4.86,9.13-8.31,12.92-10.36c3.79-2.05,8.04-3.07,12.74-3.07c8.84,0,15.1,4.48,18.77,13.43
		c4.92-4.99,9.35-8.48,13.3-10.46c3.95-1.98,8.32-2.97,13.13-2.97c7.89,0,13.39,3.17,16.47,9.5c1.26,2.66,2.09,5.51,2.49,8.55
		c0.4,3.04,0.6,7.48,0.6,13.3v62.51c0,1.4-0.17,2.28-0.52,2.66c-0.35,0.38-1.15,0.57-2.41,0.57h-15.84c-1.26,0-2.07-0.19-2.41-0.57
		c-0.34-0.38-0.52-1.26-0.52-2.65v-60.08c0-5.3-0.57-9.06-1.71-11.28c-1.14-2.21-3.13-3.32-5.98-3.32c-2.28,0-4.53,0.63-6.75,1.9
		c-2.22,1.26-4.87,3.47-7.95,6.63v66.15c0,1.39-0.18,2.27-0.52,2.65c-0.35,0.38-1.16,0.57-2.43,0.57h-15.8
		c-1.28,0-2.09-0.19-2.43-0.57c-0.35-0.38-0.52-1.26-0.52-2.65v-58.19c0-6.32-0.54-10.58-1.63-12.79c-1.08-2.21-3.16-3.32-6.24-3.32
		c-2.28,0-4.56,0.63-6.84,1.9c-2.28,1.26-4.9,3.35-7.86,6.25V486.03z"/>
</g>
<g>
	<path class="st0" d="M977.67,340.08c2.72,0,5.28,0.57,7.68,1.71c2.4,1.14,4.5,2.68,6.3,4.62c1.8,1.94,3.23,4.2,4.29,6.78
		c1.06,2.58,1.59,5.33,1.59,8.25c0,2.96-0.53,5.73-1.59,8.31c-1.06,2.58-2.5,4.84-4.32,6.78c-1.82,1.94-3.95,3.47-6.39,4.59
		c-2.44,1.12-5.04,1.68-7.8,1.68c-2.76,0-5.37-0.56-7.83-1.68c-2.46-1.12-4.6-2.65-6.42-4.59c-1.82-1.94-3.26-4.2-4.32-6.78
		c-1.06-2.58-1.59-5.33-1.59-8.25c0-3,0.53-5.8,1.59-8.4c1.06-2.6,2.51-4.87,4.35-6.81c1.84-1.94,4-3.46,6.48-4.56
		C972.16,340.63,974.82,340.08,977.67,340.08z M977.24,344.04c-2.04,0-3.98,0.46-5.82,1.38c-1.84,0.92-3.44,2.17-4.8,3.75
		c-1.36,1.58-2.44,3.42-3.24,5.52c-0.8,2.1-1.2,4.35-1.2,6.75c0,2.4,0.4,4.66,1.2,6.78c0.8,2.12,1.89,3.96,3.27,5.52
		c1.38,1.56,2.99,2.8,4.83,3.72c1.84,0.92,3.82,1.38,5.94,1.38c2.08,0,4.04-0.46,5.88-1.38c1.84-0.92,3.45-2.16,4.83-3.72
		c1.38-1.56,2.47-3.39,3.27-5.49c0.8-2.1,1.2-4.35,1.2-6.75c0-2.44-0.4-4.72-1.2-6.84c-0.8-2.12-1.89-3.97-3.27-5.55
		c-1.38-1.58-3-2.82-4.86-3.72C981.42,344.49,979.4,344.04,977.24,344.04z M986.6,371.28c0.16,0.2,0.24,0.44,0.24,0.72
		c0,0.36-0.3,0.62-0.9,0.78l-3.12,0.84c-0.2,0.08-0.38,0.12-0.54,0.12c-0.32,0-0.62-0.22-0.9-0.66l-5.04-9.42h-1.56v8.4
		c0,0.44-0.08,0.73-0.24,0.87c-0.16,0.14-0.46,0.21-0.9,0.21h-3.3c-0.44,0-0.74-0.08-0.9-0.24c-0.16-0.16-0.24-0.48-0.24-0.96
		v-21.72c0-0.44,0.08-0.73,0.24-0.87c0.16-0.14,0.46-0.21,0.9-0.21h6c3.12,0,5.39,0.56,6.81,1.68c1.42,1.12,2.13,2.92,2.13,5.4
		c0,1.6-0.31,2.92-0.93,3.96c-0.62,1.04-1.63,1.94-3.03,2.7L986.6,371.28z M975.56,359.28c1.52,0,2.58-0.23,3.18-0.69
		c0.6-0.46,0.9-1.27,0.9-2.43c0-1.08-0.26-1.81-0.78-2.19c-0.52-0.38-1.5-0.57-2.94-0.57h-1.14v5.88H975.56z"/>
</g>
<g>
	<rect x="272.53" y="246.61" class="st1" width="49.61" height="99.21"/>
	<rect x="322.14" y="296.21" class="st0" width="49.61" height="99.21"/>
	<polygon class="st1" points="376.78,197 371.74,197 322.14,197 322.14,246.61 371.74,246.61 371.74,296.21 421.35,296.21 
		421.35,197 	"/>
</g>
</svg>
