<svg id="Ebene_1" data-name="Ebene 1" xmlns="http://www.w3.org/2000/svg" viewBox="0 0 512 512"><defs><style>.cls-1{fill:#05aeab;}.cls-2{fill:#fff;}</style></defs><rect class="cls-1" x="193.93" y="193.93" width="124.14" height="124.14"/><path class="cls-2" d="M473.24,31H426.69a7.76,7.76,0,0,0-7.76,7.76v33l-49.88,49.89A15.05,15.05,0,0,0,390.34,143l49.88-49.88h33A7.75,7.75,0,0,0,481,85.31V38.76A7.75,7.75,0,0,0,473.24,31Z"/><path class="cls-1" d="M139.62,364.62H93.07a7.75,7.75,0,0,0-7.76,7.76v33.5l-50,50a14.71,14.71,0,1,0,20.81,20.81l50-50h33.5a7.76,7.76,0,0,0,7.76-7.76V372.38A7.75,7.75,0,0,0,139.62,364.62Z"/><path class="cls-2" d="M297.53,100.83H122.12l-29.05-29v-33A7.75,7.75,0,0,0,85.31,31H38.76A7.76,7.76,0,0,0,31,38.76V85.31a7.76,7.76,0,0,0,7.76,7.76h33l29.05,29.05V297.53a23.28,23.28,0,1,0,46.55,0V147.38H297.53a23.28,23.28,0,1,0,0-46.55Z"/><path class="cls-2" d="M473.24,418.93h-33l-29.05-29.05V214.47a23.27,23.27,0,1,0-46.54,0V364.62H214.47a23.28,23.28,0,0,0,0,46.55H389.89l29,29.05v33a7.77,7.77,0,0,0,7.76,7.76h46.55a7.76,7.76,0,0,0,7.76-7.76V426.69A7.75,7.75,0,0,0,473.24,418.93Z"/></svg>