<svg id="Ebene_1" data-name="Ebene 1" xmlns="http://www.w3.org/2000/svg" viewBox="0 0 1434.23 390.87"><defs><style>.cls-1{fill:#fff;}.cls-2{fill:#18afa5;}</style></defs><path class="cls-1" d="M341.54,246.39l-4.05-19.92.49-.32c10.85,6.15,26.39,10.2,38,10.2,16,0,26.55-5.67,26.55-14.9,0-6.8-5.18-10.68-12.47-13.27l-30.27-8.75c-16.52-6-21.21-18.29-21.21-29.3,0-21.54,17.64-33.36,42.58-33.36,13,0,27.52,3.24,34.32,7.45v19.11c-8.58-6.15-22.5-9.07-33.67-9.07-17.49,0-23.32,7-23.32,15.87,0,3.88,1.13,10.36,11.5,14.09l29.79,8.9c13.92,4.21,22.67,13.76,22.67,28C422.5,242.5,403.07,254,377,254c-9.72,0-25.58-3.08-35.46-7.61"/><polygon class="cls-1" points="531.94 157.01 493.25 157.01 493.25 252.06 473.33 252.06 473.33 157.01 434.47 157.01 434.47 138.72 531.94 138.72 531.94 157.01"/><path class="cls-1" d="M611.93,228.42H554.29l-11,23.64H523l53.59-113.34h12.63l53.92,113.34H622.94Zm-7.94-17-21-44.85-20.88,44.85Z"/><path class="cls-1" d="M745.5,222.43c0,17-14.25,29.63-35.46,29.63H661.79V138.72h41.77c25.1,0,38.7,13.6,38.7,30.92,0,12.79-9.23,22.35-20.08,25.1,12.63,2.43,23.32,12.95,23.32,27.69m-43.72-66.55H681.54v33h18.79c13.6,0,22.18-6.64,22.18-16.35,0-10.53-7.45-16.68-20.73-16.68m23.8,64.28c0-9.07-8.09-16.68-20.23-16.68H681.54v31.41h23.81c12.14,0,20.23-5.5,20.23-14.73"/><polygon class="cls-1" points="836.37 233.76 836.37 252.06 768.69 252.06 768.69 138.72 788.61 138.72 788.61 233.76 836.37 233.76"/><polygon class="cls-1" points="880.85 156.69 880.85 187.94 926.67 187.94 926.67 204.62 880.85 204.62 880.85 234.08 929.26 234.08 929.26 252.06 860.93 252.06 860.93 138.72 929.26 138.72 929.26 156.69 880.85 156.69"/><polygon class="cls-1" points="1049.36 138.72 1049.36 252.06 1042.39 252.06 973.74 179.03 973.74 252.06 953.83 252.06 953.83 138.72 960.79 138.72 1029.44 212.87 1029.44 138.72 1049.36 138.72"/><polygon class="cls-1" points="1093.84 156.69 1093.84 187.94 1139.66 187.94 1139.66 204.62 1093.84 204.62 1093.84 234.08 1142.25 234.08 1142.25 252.06 1073.92 252.06 1073.92 138.72 1142.25 138.72 1142.25 156.69 1093.84 156.69"/><polygon class="cls-1" points="1259.47 157.01 1220.77 157.01 1220.77 252.06 1200.86 252.06 1200.86 157.01 1162 157.01 1162 138.72 1259.47 138.72 1259.47 157.01"/><path class="cls-1" d="M1321,150.17a23,23,0,1,1-22.92-23,23.12,23.12,0,0,1,22.92,23m-3.85,0a19.11,19.11,0,1,0-19.07,19.23,19.1,19.1,0,0,0,19.07-19.23m-14,3.3,5.17,6.67-.23.62h-6l-4.55-6.2h-2.12v6.2h-5.73v-22h9.1c5.1,0,8.71,3.38,8.71,7.69a8.07,8.07,0,0,1-4.31,7m-7.77-3.22h2.27c2.67,0,4-1.57,4-3.3s-1.33-3.29-4-3.29h-2.27Z"/><rect class="cls-2" x="172.76" y="172.76" width="45.35" height="45.35"/><path class="cls-1" d="M274.81,113.23h-17a2.84,2.84,0,0,0-2.84,2.83v12.07l-18.22,18.23a5.5,5.5,0,0,0,7.78,7.77l18.22-18.22h12.07a2.84,2.84,0,0,0,2.83-2.84v-17A2.83,2.83,0,0,0,274.81,113.23Z"/><path class="cls-2" d="M152.92,235.12h-17a2.84,2.84,0,0,0-2.84,2.83v12.24L114.8,268.46a5.38,5.38,0,1,0,7.61,7.6l18.27-18.26h12.24a2.84,2.84,0,0,0,2.83-2.84V238A2.83,2.83,0,0,0,152.92,235.12Z"/><path class="cls-1" d="M210.61,138.74H146.52l-10.61-10.61V116.06a2.84,2.84,0,0,0-2.84-2.83h-17a2.84,2.84,0,0,0-2.84,2.83v17a2.84,2.84,0,0,0,2.84,2.84h12.06l10.61,10.61v64.09a8.51,8.51,0,0,0,17,0V155.75h54.86a8.51,8.51,0,0,0,0-17Z"/><path class="cls-1" d="M274.81,255H262.74l-10.61-10.61V180.26a8.51,8.51,0,0,0-17,0v54.86H180.26a8.51,8.51,0,0,0,0,17h64.09L255,262.74V274.8a2.84,2.84,0,0,0,2.84,2.84h17a2.84,2.84,0,0,0,2.83-2.84v-17A2.84,2.84,0,0,0,274.81,255Z"/></svg>